<svg width="16" height="15" viewBox="0 0 16 15" fill="none" xmlns="http://www.w3.org/2000/svg">
<path d="M6.5 0.25H9.5C11.0913 0.25 12.6174 0.882141 13.7426 2.00736C14.8679 3.13258 15.5 4.6587 15.5 6.25C15.5 7.8413 14.8679 9.36742 13.7426 10.4926C12.6174 11.6179 11.0913 12.25 9.5 12.25V14.875C5.75 13.375 0.5 11.125 0.5 6.25C0.5 4.6587 1.13214 3.13258 2.25736 2.00736C3.38258 0.882141 4.9087 0.25 6.5 0.25ZM8 10.75H9.5C10.0909 10.75 10.6761 10.6336 11.2221 10.4075C11.768 10.1813 12.2641 9.84984 12.682 9.43198C13.0998 9.01412 13.4313 8.51804 13.6575 7.97208C13.8836 7.42611 14 6.84095 14 6.25C14 5.65905 13.8836 5.07389 13.6575 4.52792C13.4313 3.98196 13.0998 3.48588 12.682 3.06802C12.2641 2.65016 11.768 2.31869 11.2221 2.09254C10.6761 1.8664 10.0909 1.75 9.5 1.75H6.5C5.30653 1.75 4.16193 2.22411 3.31802 3.06802C2.47411 3.91193 2 5.05653 2 6.25C2 8.9575 3.8465 10.7245 8 12.61V10.75Z" fill="black"/>
</svg>
