<svg width="12" height="16" viewBox="0 0 12 16" fill="none" xmlns="http://www.w3.org/2000/svg">
<path d="M0.75 0.5H11.25C11.4489 0.5 11.6397 0.579018 11.7803 0.71967C11.921 0.860322 12 1.05109 12 1.25V15.6072C12.0001 15.6743 11.9822 15.7402 11.9482 15.7979C11.9142 15.8557 11.8653 15.9033 11.8066 15.9358C11.7479 15.9683 11.6816 15.9844 11.6146 15.9826C11.5476 15.9807 11.4823 15.9609 11.4255 15.9252L6 12.5225L0.5745 15.9245C0.517776 15.9601 0.452541 15.9799 0.385576 15.9818C0.318612 15.9837 0.252365 15.9676 0.193721 15.9352C0.135078 15.9029 0.0861801 15.8554 0.0521121 15.7977C0.0180441 15.74 4.98531e-05 15.6742 0 15.6072V1.25C0 1.05109 0.0790178 0.860322 0.21967 0.71967C0.360322 0.579018 0.551088 0.5 0.75 0.5ZM10.5 2H1.5V13.574L6 10.7532L10.5 13.574V2Z" fill="black"/>
</svg>
